<svg width="588" height="588" viewBox="0 0 588 588" fill="none" xmlns="http://www.w3.org/2000/svg">
<path d="M147.45 294C147.45 213.03 213.09 147.45 294 147.45C374.91 147.45 440.55 213.09 440.55 294C440.55 374.91 374.91 440.55 294 440.55C213.09 440.55 147.45 374.91 147.45 294ZM587.11 294C587.11 213.09 521.47 147.45 440.56 147.45V440.55C521.53 440.55 587.11 374.91 587.11 294ZM440.56 147.45H587.11C587.11 66.4804 521.47 0.900391 440.56 0.900391V147.45C440.56 66.5404 374.92 0.900391 294.01 0.900391C213.1 0.900391 147.46 66.5404 147.46 147.45H440.56ZM147.46 147.45V0.900391C66.5501 0.900391 0.910156 66.5404 0.910156 147.45H147.46ZM440.56 440.55H2.20015C2.20015 521.52 67.8401 587.1 148.75 587.1V459.9C158.2 531.71 219.59 587.1 294 587.1C374.91 587.1 440.55 521.52 440.55 440.55V587.1C521.52 587.1 587.1 521.46 587.1 440.55H440.55H440.56ZM147.46 147.45C66.5501 147.45 0.910156 213.09 0.910156 294C0.910156 374.91 66.5501 440.55 147.46 440.55V147.45Z" fill="white"/>
</svg>
